<svg width="20" height="21" viewBox="0 0 20 21" fill="none" xmlns="http://www.w3.org/2000/svg">
<path d="M14.1665 3.22734C14.3854 3.00847 14.6452 2.83486 14.9312 2.7164C15.2171 2.59795 15.5236 2.53699 15.8332 2.53699C16.1427 2.53699 16.4492 2.59795 16.7352 2.7164C17.0211 2.83486 17.281 3.00847 17.4998 3.22734C17.7187 3.44621 17.8923 3.70605 18.0108 3.99202C18.1292 4.27798 18.1902 4.58448 18.1902 4.89401C18.1902 5.20354 18.1292 5.51004 18.0108 5.796C17.8923 6.08197 17.7187 6.34181 17.4998 6.56068L6.24984 17.8107L1.6665 19.0607L2.9165 14.4773L14.1665 3.22734Z" stroke="#676B7A" stroke-width="1.66667" stroke-linecap="round" stroke-linejoin="round"/>
</svg>
