<svg width="32" height="33" viewBox="0 0 32 33" fill="none" xmlns="http://www.w3.org/2000/svg">
<path d="M30.0014 17.0382C30.0014 15.8871 29.9061 15.0471 29.6998 14.176H16.2871V19.3715H24.1601C24.0014 20.6627 23.1442 22.6071 21.2394 23.9137L21.2127 24.0877L25.4536 27.3073L25.7474 27.336C28.4458 24.8938 30.0014 21.3004 30.0014 17.0382Z" fill="#4285F4"/>
<path d="M16.2853 30.7273C20.1424 30.7273 23.3804 29.4828 25.7456 27.3362L21.2377 23.9138C20.0313 24.7383 18.4123 25.3139 16.2853 25.3139C12.5076 25.3139 9.30128 22.8717 8.15832 19.4961L7.99078 19.51L3.58111 22.8545L3.52344 23.0116C5.87261 27.585 10.698 30.7273 16.2853 30.7273Z" fill="#34A853"/>
<path d="M8.16061 19.4963C7.85903 18.6252 7.6845 17.6918 7.6845 16.7274C7.6845 15.7629 7.85903 14.8296 8.14475 13.9585L8.13676 13.7729L3.67181 10.3748L3.52572 10.4429C2.55751 12.3407 2.00195 14.4718 2.00195 16.7274C2.00195 18.9829 2.55751 21.1139 3.52572 23.0117L8.16061 19.4963Z" fill="#FBBC05"/>
<path d="M16.2854 8.14059C18.9679 8.14059 20.7774 9.27614 21.8092 10.2251L25.8409 6.36729C23.3648 4.11174 20.1425 2.72729 16.2854 2.72729C10.698 2.72729 5.87262 5.86949 3.52344 10.4428L8.14247 13.9584C9.30131 10.5828 12.5076 8.14059 16.2854 8.14059Z" fill="#EB4335"/>
</svg>
