<svg width="20" height="21" viewBox="0 0 20 21" fill="white" xmlns="http://www.w3.org/2000/svg">
<path d="M10 17.6023C6.20833 17.6023 3.125 14.519 3.125 10.7273C3.125 6.93563 6.20833 3.85229 10 3.85229C13.7917 3.85229 16.875 6.93563 16.875 10.7273C16.875 14.519 13.7917 17.6023 10 17.6023ZM10 5.10229C6.9 5.10229 4.375 7.62729 4.375 10.7273C4.375 13.8273 6.9 16.3523 10 16.3523C13.1 16.3523 15.625 13.8273 15.625 10.7273C15.625 7.62729 13.1 5.10229 10 5.10229Z" fill="#ffffff"/>
<path d="M10 13.8523C8.275 13.8523 6.875 12.4523 6.875 10.7273C6.875 9.00229 8.275 7.60229 10 7.60229C11.725 7.60229 13.125 9.00229 13.125 10.7273C13.125 12.4523 11.725 13.8523 10 13.8523ZM10 8.85229C8.96667 8.85229 8.125 9.69396 8.125 10.7273C8.125 11.7606 8.96667 12.6023 10 12.6023C11.0333 12.6023 11.875 11.7606 11.875 10.7273C11.875 9.69396 11.0333 8.85229 10 8.85229Z" fill="#ffffff"/>
<path d="M10 4.68559C9.65833 4.68559 9.375 4.40225 9.375 4.06059V2.39392C9.375 2.05225 9.65833 1.76892 10 1.76892C10.3417 1.76892 10.625 2.05225 10.625 2.39392V4.06059C10.625 4.40225 10.3417 4.68559 10 4.68559Z" fill="#ffffff"/>
<path d="M3.33317 11.3523H1.6665C1.32484 11.3523 1.0415 11.069 1.0415 10.7273C1.0415 10.3856 1.32484 10.1023 1.6665 10.1023H3.33317C3.67484 10.1023 3.95817 10.3856 3.95817 10.7273C3.95817 11.069 3.67484 11.3523 3.33317 11.3523Z" fill="#ffffff"/>
<path d="M10 19.6856C9.65833 19.6856 9.375 19.4023 9.375 19.0606V17.3939C9.375 17.0523 9.65833 16.7689 10 16.7689C10.3417 16.7689 10.625 17.0523 10.625 17.3939V19.0606C10.625 19.4023 10.3417 19.6856 10 19.6856Z" fill="#ffffff"/>
<path d="M18.3332 11.3523H16.6665C16.3248 11.3523 16.0415 11.069 16.0415 10.7273C16.0415 10.3856 16.3248 10.1023 16.6665 10.1023H18.3332C18.6748 10.1023 18.9582 10.3856 18.9582 10.7273C18.9582 11.069 18.6748 11.3523 18.3332 11.3523Z" fill="#ffffff"/>
</svg>
