<svg width="24" height="25" viewBox="0 0 24 25" fill="none" xmlns="http://www.w3.org/2000/svg">
<g opacity="0.4">
<path d="M21 20.9773H19.5V3.72732C19.4997 3.60222 19.4682 3.47918 19.4082 3.36939C19.3483 3.25961 19.2618 3.16656 19.1567 3.09873C19.0516 3.03089 18.9312 2.99042 18.8064 2.98101C18.6817 2.97159 18.5566 2.99353 18.4425 3.04482L7.5 7.90482V5.97732C7.5 5.77841 7.42098 5.58764 7.28033 5.44699C7.13968 5.30634 6.94891 5.22732 6.75 5.22732C6.55109 5.22732 6.36032 5.30634 6.21967 5.44699C6.07902 5.58764 6 5.77841 6 5.97732V8.57232L4.9425 9.04482C4.81091 9.10397 4.69918 9.19982 4.62069 9.32087C4.54221 9.44193 4.5003 9.58305 4.5 9.72732V20.9773H3C2.80109 20.9773 2.61032 21.0563 2.46967 21.197C2.32902 21.3376 2.25 21.5284 2.25 21.7273C2.25 21.9262 2.32902 22.117 2.46967 22.2576C2.61032 22.3983 2.80109 22.4773 3 22.4773H21C21.1989 22.4773 21.3897 22.3983 21.5303 22.2576C21.671 22.117 21.75 21.9262 21.75 21.7273C21.75 21.5284 21.671 21.3376 21.5303 21.197C21.3897 21.0563 21.1989 20.9773 21 20.9773ZM6 10.2148L18 4.88232V20.9773H14.25V17.2273C14.25 17.0284 14.171 16.8376 14.0303 16.697C13.8897 16.5563 13.6989 16.4773 13.5 16.4773H10.5C10.3011 16.4773 10.1103 16.5563 9.96967 16.697C9.82902 16.8376 9.75 17.0284 9.75 17.2273V20.9773H6V10.2148ZM12.75 20.9773H11.25V17.9773H12.75V20.9773Z" fill="#36B37E"/>
<path d="M6 10.2148L18 4.88232V20.9773H14.25V17.2273C14.25 17.0284 14.171 16.8376 14.0303 16.697C13.8897 16.5563 13.6989 16.4773 13.5 16.4773H10.5C10.3011 16.4773 10.1103 16.5563 9.96967 16.697C9.82902 16.8376 9.75 17.0284 9.75 17.2273V20.9773H6V10.2148Z" fill="#36B37E"/>
</g>
<path d="M12 12.7274C12.1734 12.7264 12.3412 12.6653 12.4747 12.5545C12.6081 12.4437 12.6991 12.2901 12.732 12.1197C12.7649 11.9494 12.7378 11.773 12.6553 11.6204C12.5727 11.4679 12.4398 11.3486 12.2792 11.2831C12.1187 11.2175 11.9403 11.2096 11.7746 11.2607C11.6088 11.3118 11.4659 11.4188 11.3702 11.5635C11.2745 11.7082 11.2318 11.8815 11.2496 12.0541C11.2673 12.2266 11.3443 12.3877 11.4675 12.5099C11.6112 12.6469 11.8014 12.7246 12 12.7274ZM15.75 12.7274C15.9234 12.7264 16.0912 12.6653 16.2247 12.5545C16.3581 12.4437 16.4491 12.2901 16.482 12.1197C16.5149 11.9494 16.4878 11.773 16.4053 11.6204C16.3227 11.4679 16.1898 11.3486 16.0292 11.2831C15.8687 11.2175 15.6903 11.2096 15.5246 11.2607C15.3588 11.3118 15.2159 11.4188 15.1202 11.5635C15.0245 11.7082 14.9818 11.8815 14.9996 12.0541C15.0173 12.2266 15.0943 12.3877 15.2175 12.5099C15.3612 12.6469 15.5514 12.7246 15.75 12.7274ZM8.78249 11.4449C8.66033 11.3217 8.49927 11.2447 8.32671 11.227C8.15416 11.2092 7.98079 11.2518 7.83613 11.3476C7.69147 11.4433 7.58446 11.5862 7.53333 11.7519C7.48219 11.9177 7.49009 12.096 7.55568 12.2566C7.62127 12.4172 7.7405 12.5501 7.89306 12.6326C8.04561 12.7152 8.22207 12.7423 8.39238 12.7094C8.56268 12.6765 8.71631 12.5855 8.8271 12.452C8.93789 12.3186 8.99898 12.1508 8.99999 11.9774C9.00056 11.8787 8.98164 11.7808 8.94432 11.6894C8.90699 11.5981 8.852 11.5149 8.78249 11.4449Z" fill="#36B37E"/>
<path d="M21 20.9773H19.5V3.72732C19.4997 3.60222 19.4682 3.47918 19.4082 3.36939C19.3483 3.25961 19.2618 3.16656 19.1567 3.09873C19.0516 3.03089 18.9312 2.99042 18.8064 2.98101C18.6817 2.97159 18.5566 2.99353 18.4425 3.04482L7.5 7.90482V5.97732C7.5 5.77841 7.42098 5.58764 7.28033 5.44699C7.13968 5.30634 6.94891 5.22732 6.75 5.22732C6.55109 5.22732 6.36032 5.30634 6.21967 5.44699C6.07902 5.58764 6 5.77841 6 5.97732V8.57232L4.9425 9.04482C4.81091 9.10397 4.69918 9.19982 4.62069 9.32087C4.54221 9.44193 4.5003 9.58305 4.5 9.72732V20.9773H3C2.80109 20.9773 2.61032 21.0563 2.46967 21.197C2.32902 21.3376 2.25 21.5284 2.25 21.7273C2.25 21.9262 2.32902 22.117 2.46967 22.2576C2.61032 22.3983 2.80109 22.4773 3 22.4773H21C21.1989 22.4773 21.3897 22.3983 21.5303 22.2576C21.671 22.117 21.75 21.9262 21.75 21.7273C21.75 21.5284 21.671 21.3376 21.5303 21.197C21.3897 21.0563 21.1989 20.9773 21 20.9773ZM6 10.2148L18 4.88232V20.9773H14.25V17.2273C14.25 17.0284 14.171 16.8376 14.0303 16.697C13.8897 16.5563 13.6989 16.4773 13.5 16.4773H10.5C10.3011 16.4773 10.1103 16.5563 9.96967 16.697C9.82902 16.8376 9.75 17.0284 9.75 17.2273V20.9773H6V10.2148ZM12.75 20.9773H11.25V17.9773H12.75V20.9773Z" fill="#36B37E"/>
<path d="M12 12.7274C12.1734 12.7264 12.3412 12.6653 12.4747 12.5545C12.6081 12.4437 12.6991 12.2901 12.732 12.1197C12.7649 11.9494 12.7378 11.773 12.6553 11.6204C12.5727 11.4679 12.4398 11.3486 12.2792 11.2831C12.1187 11.2175 11.9403 11.2096 11.7746 11.2607C11.6088 11.3118 11.4659 11.4188 11.3702 11.5635C11.2745 11.7082 11.2318 11.8815 11.2496 12.0541C11.2673 12.2266 11.3443 12.3877 11.4675 12.5099C11.6112 12.6469 11.8014 12.7246 12 12.7274ZM15.75 12.7274C15.9234 12.7264 16.0912 12.6653 16.2247 12.5545C16.3581 12.4437 16.4491 12.2901 16.482 12.1197C16.5149 11.9494 16.4878 11.773 16.4053 11.6204C16.3227 11.4679 16.1898 11.3486 16.0292 11.2831C15.8687 11.2175 15.6903 11.2096 15.5246 11.2607C15.3588 11.3118 15.2159 11.4188 15.1202 11.5635C15.0245 11.7082 14.9818 11.8815 14.9996 12.0541C15.0173 12.2266 15.0943 12.3877 15.2175 12.5099C15.3612 12.6469 15.5514 12.7246 15.75 12.7274ZM8.78249 11.4449C8.66033 11.3217 8.49927 11.2447 8.32671 11.227C8.15416 11.2092 7.98079 11.2518 7.83613 11.3476C7.69147 11.4433 7.58446 11.5862 7.53333 11.7519C7.48219 11.9177 7.49009 12.096 7.55568 12.2566C7.62127 12.4172 7.7405 12.5501 7.89306 12.6326C8.04561 12.7152 8.22207 12.7423 8.39238 12.7094C8.56268 12.6765 8.71631 12.5855 8.8271 12.452C8.93789 12.3186 8.99898 12.1508 8.99999 11.9774C9.00056 11.8787 8.98164 11.7808 8.94432 11.6894C8.90699 11.5981 8.852 11.5149 8.78249 11.4449Z" fill="#36B37E"/>
</svg>
