<svg width="24" height="25" viewBox="0 0 24 25" fill="none" xmlns="http://www.w3.org/2000/svg">
<path d="M19 2.72729H5C4.20508 2.72967 3.4434 3.0465 2.8813 3.6086C2.31921 4.17069 2.00237 4.93238 2 5.72729V14.5873L5.88 10.7073C6.4517 10.1632 7.21074 9.85968 8 9.85968C8.78926 9.85968 9.5483 10.1632 10.12 10.7073L12.991 13.5943L13.879 12.7063C14.4426 12.1458 15.2052 11.8312 16 11.8312C16.7948 11.8312 17.5574 12.1458 18.121 12.7063L22 16.5873V5.72729C21.9976 4.93238 21.6808 4.17069 21.1187 3.6086C20.5566 3.0465 19.7949 2.72967 19 2.72729Z" fill="#D1D3D7"/>
<path d="M10.12 10.7072C9.5483 10.1631 8.78926 9.85962 8 9.85962C7.21074 9.85962 6.4517 10.1631 5.88 10.7072L2 14.5872V19.7272C2.00237 20.5222 2.31921 21.2838 2.8813 21.8459C3.4434 22.408 4.20508 22.7249 5 22.7272H19C19.815 22.7272 20.595 22.3942 21.16 21.8072L10.12 10.7072Z" fill="#676B7A"/>
<path d="M22.0002 16.5852L18.1212 12.7062C17.5576 12.1458 16.7951 11.8312 16.0002 11.8312C15.2054 11.8312 14.4428 12.1458 13.8792 12.7062L12.9912 13.5942L21.1562 21.8032C21.6982 21.2482 22.0012 20.5032 22.0002 19.7272V16.5852Z" fill="#F0F0F2"/>
</svg>
