<svg width="24" height="25" viewBox="0 0 24 25" fill="none" xmlns="http://www.w3.org/2000/svg">
<path d="M9.84846 16.2771C11.2881 16.1611 12.7344 16.1611 14.1741 16.2771C14.9581 16.3228 15.7383 16.4209 16.5099 16.5707C18.1796 16.9088 19.2697 17.4604 19.7368 18.3501C20.0877 19.0444 20.0877 19.871 19.7368 20.5654C19.2697 21.4551 18.2229 22.0422 16.4926 22.3447C15.7216 22.5002 14.9412 22.6013 14.1568 22.6472C13.4301 22.7273 12.7034 22.7273 11.968 22.7273H10.6444C10.3675 22.6917 10.0994 22.6739 9.83981 22.6739C9.05538 22.6336 8.27477 22.5354 7.50397 22.3803C5.83428 22.06 4.74422 21.4906 4.27705 20.601C4.09671 20.2563 4.00163 19.8713 4.0001 19.48C3.99646 19.0862 4.08866 18.6978 4.2684 18.3501C4.72692 17.4604 5.81698 16.8821 7.50397 16.5707C8.27816 16.4187 9.06144 16.3207 9.84846 16.2771ZM12.0026 2.72729C14.9028 2.72729 17.2539 5.14512 17.2539 8.12765C17.2539 11.1102 14.9028 13.528 12.0026 13.528C9.10241 13.528 6.75131 11.1102 6.75131 8.12765C6.75131 5.14512 9.10241 2.72729 12.0026 2.72729Z" fill="#0085FF"/>
</svg>
