<svg width="24" height="24" viewBox="0 0 24 24" fill="none" xmlns="http://www.w3.org/2000/svg">
<path d="M10.5 19C15.1944 19 19 15.1944 19 10.5C19 5.80558 15.1944 2 10.5 2C5.80558 2 2 5.80558 2 10.5C2 15.1944 5.80558 19 10.5 19Z" fill="white"/>
<path d="M21.2051 22.5C20.8733 22.5 20.5415 22.3709 20.3018 22.1311L16.8733 18.6998C16.3756 18.2018 16.3756 17.3901 16.8733 16.8736C17.371 16.3755 18.182 16.3755 18.6982 16.8736L22.1267 20.3048C22.6244 20.8028 22.6244 21.6145 22.1267 22.1311C21.8687 22.3709 21.5369 22.5 21.2051 22.5Z" fill="white"/>
</svg>
