<svg width="136" height="39" viewBox="0 0 136 39" fill="none" xmlns="http://www.w3.org/2000/svg">
<path d="M11.4305 23.8053H7.95612V33.0704H4.68311V16.3025L7.95612 14.2883V9.25293H11.0277V12.7274L14.2504 10.8139V6.23169L26.5368 16.3025V33.0704H11.4305" stroke="#3E50D5" stroke-width="1.5"/>
<path d="M17.3218 11.821L23.9685 17.36V26.5244" stroke="#F57C4E" stroke-width="1.5"/>
<path d="M18.0992 22.1688L18.1092 23.8588C18.1092 24.6522 18.0092 25.1755 17.8092 25.4288C17.6092 25.6755 17.2458 25.7988 16.7192 25.7988H15.2492V24.8488H15.9892C16.1558 24.8488 16.2658 24.8288 16.3192 24.7888C16.3725 24.7488 16.3992 24.6722 16.3992 24.5588V19.8188C16.3992 19.6988 16.3725 19.6188 16.3192 19.5788C16.2658 19.5388 16.1558 19.5188 15.9892 19.5188H15.2492V18.5688H16.8192C17.3058 18.5688 17.6425 18.6822 17.8292 18.9088C18.0225 19.1288 18.1192 19.5622 18.1192 20.2088L18.0992 22.1688ZM14.9492 25.8088H13.8992C13.6792 25.8088 13.5325 25.7722 13.4592 25.6988C13.3858 25.6188 13.3492 25.4655 13.3492 25.2388V19.1388C13.3492 18.9122 13.3858 18.7622 13.4592 18.6888C13.5325 18.6088 13.6792 18.5688 13.8992 18.5688H14.9492V25.8088Z" fill="#F57C4E"/>
<path d="M57.472 20.384L57.504 25.792C57.504 28.3307 57.184 30.0053 56.544 30.816C55.904 31.6053 54.7413 32 53.056 32H48.352V28.96H50.72C51.2533 28.96 51.6053 28.896 51.776 28.768C51.9467 28.64 52.032 28.3947 52.032 28.032V12.864C52.032 12.48 51.9467 12.224 51.776 12.096C51.6053 11.968 51.2533 11.904 50.72 11.904H48.352V8.864H53.376C54.9333 8.864 56.0107 9.22667 56.608 9.952C57.2267 10.656 57.536 12.0427 57.536 14.112L57.472 20.384ZM47.392 32.032H44.032C43.328 32.032 42.8587 31.9147 42.624 31.68C42.3893 31.424 42.272 30.9333 42.272 30.208V10.688C42.272 9.96267 42.3893 9.48267 42.624 9.248C42.8587 8.992 43.328 8.864 44.032 8.864H47.392V32.032Z" fill="#F57C4E"/>
<path d="M69.3195 18.4H67.5915C66.9302 18.4 66.5568 18.5173 66.4715 18.752C66.3435 19.0293 66.2795 19.424 66.2795 19.936V28.064C66.2795 28.1067 66.2795 28.2347 66.2795 28.448C66.2795 28.6613 66.3008 28.8427 66.3435 28.992C66.4288 29.3973 66.8448 29.6 67.5915 29.6H69.3195V32H66.2155C65.4048 32 64.7435 31.968 64.2315 31.904C63.7195 31.8187 63.2715 31.648 62.8875 31.392C62.5035 31.136 62.2155 30.8587 62.0235 30.56C61.8315 30.24 61.6715 29.7387 61.5435 29.056C61.3942 28.096 61.3195 26.752 61.3195 25.024C61.3195 23.296 61.3302 22.1333 61.3515 21.536C61.3728 20.9173 61.4048 20.2667 61.4475 19.584C61.5115 18.9013 61.6075 18.4 61.7355 18.08C61.8848 17.76 62.0662 17.44 62.2795 17.12C62.5142 16.7787 62.8128 16.544 63.1755 16.416C63.9648 16.1387 64.9782 16 66.2155 16H69.3195V18.4ZM76.5195 31.776C76.5195 31.9253 76.4768 32 76.3915 32H73.7675C72.5728 32 71.6875 31.7227 71.1115 31.168C70.5568 30.6133 70.2795 29.7067 70.2795 28.448V16H71.5915C72.9355 16 73.8528 16.32 74.3435 16.96C74.8342 17.5787 75.0795 18.4 75.0795 19.424V28.384C75.0795 29.0453 75.2182 29.4187 75.4955 29.504C75.6448 29.568 75.8475 29.6 76.1035 29.6H76.2635C76.4342 29.6 76.5195 29.6747 76.5195 29.824V31.776ZM82.4675 16H86.3075C86.4355 16 86.4995 16.0747 86.4995 16.224V18.176C86.4995 18.3253 86.4142 18.4 86.2435 18.4H84.8035C84.2915 18.4 83.9928 18.496 83.9075 18.688C83.8222 18.9653 83.7795 19.2747 83.7795 19.616V29.536C83.7795 30.2613 83.5342 30.8587 83.0435 31.328C82.5742 31.776 81.8702 32 80.9315 32H78.9795V19.552C78.9795 18.2933 79.2568 17.3867 79.8115 16.832C80.3875 16.2773 81.2728 16 82.4675 16ZM96.7258 18.4H94.9978C94.3364 18.4 93.9631 18.5173 93.8778 18.752C93.7498 19.0293 93.6858 19.424 93.6858 19.936V28.064C93.6858 28.1067 93.6858 28.2347 93.6858 28.448C93.6858 28.6613 93.7071 28.8427 93.7498 28.992C93.8351 29.3973 94.2511 29.6 94.9978 29.6H96.7258V32H93.6218C92.8111 32 92.1498 31.968 91.6378 31.904C91.1258 31.8187 90.6778 31.648 90.2938 31.392C89.9098 31.136 89.6218 30.8587 89.4298 30.56C89.2378 30.24 89.0778 29.7387 88.9498 29.056C88.8004 28.096 88.7258 26.752 88.7258 25.024C88.7258 23.296 88.7364 22.1333 88.7578 21.536C88.7791 20.9173 88.8111 20.2667 88.8538 19.584C88.9178 18.9013 89.0138 18.4 89.1418 18.08C89.2911 17.76 89.4724 17.44 89.6858 17.12C89.9204 16.7787 90.2191 16.544 90.5818 16.416C91.3711 16.1387 92.3844 16 93.6218 16H96.7258V18.4ZM103.926 31.776C103.926 31.9253 103.883 32 103.798 32H101.174C99.9791 32 99.0938 31.7227 98.5178 31.168C97.9631 30.6133 97.6858 29.7067 97.6858 28.448V16H98.9978C100.342 16 101.259 16.32 101.75 16.96C102.24 17.5787 102.486 18.4 102.486 19.424V28.384C102.486 29.0453 102.624 29.4187 102.902 29.504C103.051 29.568 103.254 29.6 103.51 29.6H103.67C103.84 29.6 103.926 29.6747 103.926 29.824V31.776ZM106.45 8.864H108.402C109.34 8.864 110.044 9.09867 110.514 9.568C111.004 10.016 111.25 10.6027 111.25 11.328V32H107.602C107.26 32 106.983 31.8827 106.77 31.648C106.556 31.4133 106.45 31.104 106.45 30.72V8.864ZM115.09 24.736H118.738C119.079 24.736 119.356 24.8533 119.57 25.088C119.783 25.3227 119.89 25.632 119.89 26.016V32H116.242C115.9 32 115.623 31.8827 115.41 31.648C115.196 31.4133 115.09 31.104 115.09 30.72V24.736ZM119.57 16V20.416C119.57 22.6987 118.407 23.84 116.082 23.84H112.05V21.44H113.778C114.226 21.44 114.503 21.376 114.61 21.248C114.716 21.0987 114.77 20.8427 114.77 20.48V17.312C114.77 16.4373 115.154 16 115.922 16H119.57Z" fill="#3E50D5"/>
</svg>
