<svg width="25" height="30" viewBox="0 0 25 30" fill="none" xmlns="http://www.w3.org/2000/svg">
<path d="M8.43055 19.8053H4.95612V29.0704H1.68311V12.3025L4.95612 10.2883V5.25293H8.02772V8.72736L11.2504 6.81391V2.23169L23.5368 12.3025V29.0704H8.43055" stroke="#3E50D5" stroke-width="1.5"/>
<path d="M14.3218 7.82104L20.9685 13.36V22.5244" stroke="#F57C4E" stroke-width="1.5"/>
<path d="M15.0992 18.1688L15.1092 19.8588C15.1092 20.6522 15.0092 21.1755 14.8092 21.4288C14.6092 21.6755 14.2458 21.7988 13.7192 21.7988H12.2492V20.8488H12.9892C13.1558 20.8488 13.2658 20.8288 13.3192 20.7888C13.3725 20.7488 13.3992 20.6722 13.3992 20.5588V15.8188C13.3992 15.6988 13.3725 15.6188 13.3192 15.5788C13.2658 15.5388 13.1558 15.5188 12.9892 15.5188H12.2492V14.5688H13.8192C14.3058 14.5688 14.6425 14.6822 14.8292 14.9088C15.0225 15.1288 15.1192 15.5622 15.1192 16.2088L15.0992 18.1688ZM11.9492 21.8088H10.8992C10.6792 21.8088 10.5325 21.7722 10.4592 21.6988C10.3858 21.6188 10.3492 21.4655 10.3492 21.2388V15.1388C10.3492 14.9122 10.3858 14.7622 10.4592 14.6888C10.5325 14.6088 10.6792 14.5688 10.8992 14.5688H11.9492V21.8088Z" fill="#F57C4E"/>
</svg>
