<svg width="25" height="24" viewBox="0 0 25 24" fill="none" xmlns="http://www.w3.org/2000/svg">
<path opacity="0.4" d="M20.9533 8.45C19.9033 3.83 15.8733 1.75 12.3333 1.75C12.3333 1.75 12.3333 1.75 12.3233 1.75C8.79335 1.75 4.75335 3.82 3.70335 8.44C2.53335 13.6 5.69335 17.97 8.55335 20.72C9.61335 21.74 10.9733 22.25 12.3333 22.25C13.6933 22.25 15.0533 21.74 16.1033 20.72C18.9633 17.97 22.1233 13.61 20.9533 8.45Z" fill="#CC3931"/>
<path d="M12.3333 13.46C14.073 13.46 15.4833 12.0497 15.4833 10.31C15.4833 8.57034 14.073 7.16003 12.3333 7.16003C10.5937 7.16003 9.18335 8.57034 9.18335 10.31C9.18335 12.0497 10.5937 13.46 12.3333 13.46Z" fill="#CC3931"/>
</svg>
