<svg width="24" height="24" viewBox="0 0 24 24" fill="none" xmlns="http://www.w3.org/2000/svg">
<path opacity="0.4" d="M16.9998 20.5H6.99976C3.99976 20.5 1.99976 19 1.99976 15.5V8.5C1.99976 5 3.99976 3.5 6.99976 3.5H16.9998C19.9998 3.5 21.9998 5 21.9998 8.5V15.5C21.9998 19 19.9998 20.5 16.9998 20.5Z" fill="#FFAB00"/>
<path d="M11.9998 15C13.6566 15 14.9998 13.6569 14.9998 12C14.9998 10.3431 13.6566 9 11.9998 9C10.3429 9 8.99976 10.3431 8.99976 12C8.99976 13.6569 10.3429 15 11.9998 15Z" fill="#FFAB00"/>
<path d="M4.49976 10.75C4.08976 10.75 3.74976 10.41 3.74976 10V8.5C3.74976 6.71 5.20976 5.25 6.99976 5.25H8.49976C8.90976 5.25 9.24976 5.59 9.24976 6C9.24976 6.41 8.90976 6.75 8.49976 6.75H6.99976C6.03976 6.75 5.24976 7.54 5.24976 8.5V10C5.24976 10.41 4.90976 10.75 4.49976 10.75Z" fill="#FFAB00"/>
<path d="M19.4998 10.75C19.0898 10.75 18.7498 10.41 18.7498 10V8.5C18.7498 7.54 17.9598 6.75 16.9998 6.75H15.4998C15.0898 6.75 14.7498 6.41 14.7498 6C14.7498 5.59 15.0898 5.25 15.4998 5.25H16.9998C18.7898 5.25 20.2498 6.71 20.2498 8.5V10C20.2498 10.41 19.9098 10.75 19.4998 10.75Z" fill="#FFAB00"/>
<path d="M8.49976 18.75H6.99976C5.20976 18.75 3.74976 17.29 3.74976 15.5V14C3.74976 13.59 4.08976 13.25 4.49976 13.25C4.90976 13.25 5.24976 13.59 5.24976 14V15.5C5.24976 16.46 6.03976 17.25 6.99976 17.25H8.49976C8.90976 17.25 9.24976 17.59 9.24976 18C9.24976 18.41 8.90976 18.75 8.49976 18.75Z" fill="#FFAB00"/>
<path d="M16.9998 18.75H15.4998C15.0898 18.75 14.7498 18.41 14.7498 18C14.7498 17.59 15.0898 17.25 15.4998 17.25H16.9998C17.9598 17.25 18.7498 16.46 18.7498 15.5V14C18.7498 13.59 19.0898 13.25 19.4998 13.25C19.9098 13.25 20.2498 13.59 20.2498 14V15.5C20.2498 17.29 18.7898 18.75 16.9998 18.75Z" fill="#FFAB00"/>
</svg>
