<svg width="20" height="21" viewBox="0 0 20 21" fill="none" xmlns="http://www.w3.org/2000/svg">
<path d="M2.5 5.72725H4.16667M4.16667 5.72725H17.5M4.16667 5.72725V17.3939C4.16667 17.8359 4.34226 18.2599 4.65482 18.5724C4.96738 18.885 5.39131 19.0606 5.83333 19.0606H14.1667C14.6087 19.0606 15.0326 18.885 15.3452 18.5724C15.6577 18.2599 15.8333 17.8359 15.8333 17.3939V5.72725H4.16667ZM6.66667 5.72725V4.06059C6.66667 3.61856 6.84226 3.19464 7.15482 2.88208C7.46738 2.56952 7.89131 2.39392 8.33333 2.39392H11.6667C12.1087 2.39392 12.5326 2.56952 12.8452 2.88208C13.1577 3.19464 13.3333 3.61856 13.3333 4.06059V5.72725M8.33333 9.89392V14.8939M11.6667 9.89392V14.8939" stroke="#676B7A" stroke-width="1.66667" stroke-linecap="round" stroke-linejoin="round"/>
</svg>
